<?xml version="1.0" encoding="UTF-8"?>
<svg width="700pt" height="700pt" version="1.1" viewBox="0 0 700 700" xmlns="http://www.w3.org/2000/svg">
 <path d="m570 260h-391.8l145.8-145.8c7.8008-7.8008 7.8008-20.398 0-28.199s-20.398-7.8008-28.199 0l-180 180c-1.8008 1.8008-3.3984 4-4.3984 6.6016-2 4.8008-2 10.398 0 15.199 1 2.3984 2.3984 4.6016 4.3984 6.6016l180 180c4 3.5977 9 5.5977 14.199 5.5977s10.199-2 14.199-5.8008c7.8008-7.8008 7.8008-20.398 0-28.199l-146-146h391.8c11 0 20-9 20-20s-9-20-20-20z"/>
</svg>
