<?xml version="1.0" encoding="UTF-8"?>
<svg width="700pt" height="700pt" version="1.1" viewBox="0 0 700 700" xmlns="http://www.w3.org/2000/svg">
 <path d="m344.93 551.92c-150.14 0-272.29-122.14-272.29-272.29 0-150.14 122.14-272.28 272.29-272.28 150.14 0 272.29 122.14 272.29 272.29 0 48.664-13.18 96.434-38.172 138.55l48.867 112.3c1.6094 3.7461 1.1172 8.0898-1.2969 11.379-2.4375 3.2891-6.2891 5.1133-10.516 4.5625l-160.45-18.258c-35.312 15.762-72.531 23.746-110.72 23.746zm0-521.66c-137.5 0-249.37 111.87-249.37 249.37s111.87 249.37 249.37 249.37c35.922 0 70.938-7.7305 104.07-22.977 1.9023-0.86328 4.0508-1.1953 6.0859-0.97266l143.89 16.367-43.293-99.531c-1.5195-3.457-1.2305-7.4414 0.76172-10.641 24.77-39.727 37.855-85.234 37.855-131.62-0.003906-137.5-111.88-249.37-249.38-249.37z"/>
</svg>
